<svg xmlns="http://www.w3.org/2000/svg" width="1920" height="1080" viewBox="0 0 1920 1080"><rect width="100%" height="100%" fill="#111111"/><path fill="#f3f4f6" d="M425.2 555.84h38.87L449.2 515.2q-1.1-2.71-2.28-6.42-1.19-3.72-2.37-8.03-1.1 4.31-2.28 8.07-1.19 3.76-2.28 6.55zm31.01-76.05 48 122.19h-17.58q-2.96 0-4.82-1.48t-2.78-3.67l-9.13-24.93h-50.62l-9.12 24.93q-.68 1.94-2.62 3.54-1.95 1.61-4.82 1.61h-17.74l48.08-122.19zm75.46 39.3 1.44 6.84q2.61-2.62 5.53-4.86t6.17-3.8 6.97-2.45 8.11-.89q7.1 0 12.59 2.41t9.17 6.76 5.58 10.39 1.9 13.31v55.18h-20.87V546.8q0-7.94-3.64-12.29-3.63-4.36-11.07-4.36-5.4 0-10.14 2.46-4.73 2.45-8.95 6.67v62.7h-20.87v-86.7h12.76q4.05 0 5.32 3.81m106.13 84.24q-11.32 0-17.36-6.38-6.05-6.38-6.05-17.62v-48.41h-8.87q-1.69 0-2.87-1.1t-1.18-3.3v-8.28l13.94-2.28 4.39-23.66q.42-1.69 1.61-2.62 1.18-.93 3.04-.93h10.82v27.29h23.15v14.88h-23.15v46.98q0 4.05 1.98 6.33 1.99 2.29 5.45 2.29 1.95 0 3.26-.47 1.3-.46 2.28-.97.97-.51 1.73-.97.76-.47 1.52-.47.93 0 1.52.47.59.46 1.27 1.39l6.25 10.14q-4.56 3.8-10.48 5.75-5.91 1.94-12.25 1.94m72.33-89.4q9.64 0 17.54 3.13 7.9 3.12 13.52 8.87t8.66 14.03 3.04 18.5q0 10.31-3.04 18.59t-8.66 14.11-13.52 8.96-17.54 3.13q-9.71 0-17.66-3.13-7.94-3.13-13.56-8.96t-8.7-14.11q-3.09-8.28-3.09-18.59 0-10.22 3.09-18.5 3.08-8.28 8.7-14.03t13.56-8.87q7.95-3.13 17.66-3.13m0 73.26q10.82 0 16.02-7.26 5.19-7.27 5.19-21.3t-5.19-21.38q-5.2-7.35-16.02-7.35-10.98 0-16.26 7.4-5.28 7.39-5.28 21.33t5.28 21.25 16.26 7.31m76.81-68.1 1.44 6.84q2.62-2.62 5.53-4.86 2.92-2.24 6.17-3.8 3.26-1.56 6.97-2.45 3.72-.89 8.12-.89 7.09 0 12.59 2.41 5.49 2.41 9.17 6.76 3.67 4.35 5.57 10.39t1.9 13.31v55.18h-20.87V546.8q0-7.94-3.63-12.29-3.64-4.36-11.07-4.36-5.41 0-10.14 2.46-4.73 2.45-8.96 6.67v62.7h-20.87v-86.7h12.76q4.06 0 5.32 3.81m77.91-3.81h20.96v86.7h-20.96zm23.83-25.26q0 2.7-1.1 5.07-1.1 2.36-2.91 4.14-1.82 1.77-4.27 2.83-2.45 1.05-5.24 1.05-2.7 0-5.11-1.05-2.41-1.06-4.18-2.83-1.78-1.78-2.83-4.14-1.06-2.37-1.06-5.07 0-2.79 1.06-5.24 1.05-2.45 2.83-4.23 1.77-1.77 4.18-2.83 2.41-1.05 5.11-1.05 2.79 0 5.24 1.05 2.45 1.06 4.27 2.83 1.81 1.78 2.91 4.23t1.1 5.24m64.22 89.57v-14.62q-9.04.42-15.21 1.56t-9.89 2.92q-3.71 1.77-5.32 4.14-1.6 2.36-1.6 5.15 0 5.49 3.25 7.86t8.49 2.37q6.42 0 11.11-2.33 4.69-2.32 9.17-7.05m-44.11-45.55-3.72-6.67q14.96-13.69 36-13.69 7.61 0 13.61 2.49t10.14 6.93 6.29 10.6q2.16 6.17 2.16 13.52v54.76h-9.47q-2.96 0-4.56-.89-1.61-.88-2.54-3.59l-1.86-6.25q-3.29 2.96-6.42 5.2-3.12 2.23-6.5 3.76-3.38 1.52-7.23 2.32-3.84.8-8.49.8-5.49 0-10.14-1.48t-8.03-4.43q-3.38-2.96-5.24-7.35-1.86-4.4-1.86-10.23 0-3.29 1.1-6.55 1.1-3.25 3.59-6.21 2.5-2.96 6.47-5.58t9.76-4.56 13.48-3.17q7.68-1.22 17.57-1.48v-5.07q0-8.7-3.72-12.88-3.71-4.19-10.73-4.19-5.07 0-8.41 1.19-3.33 1.18-5.87 2.66-2.53 1.48-4.6 2.66t-4.61 1.18q-2.2 0-3.72-1.14t-2.45-2.66m151.17 50.19h22.99q6.33 0 10.64-1.52t6.89-4.05q2.58-2.54 3.72-5.92t1.14-7.18q0-3.97-1.27-7.14t-3.97-5.41-6.97-3.42-10.27-1.18h-22.9zm19.35-86.86h-19.35v35.32h18.09q11.66 0 17.61-4.23 5.96-4.22 5.96-13.43 0-9.55-5.41-13.61-5.4-4.05-16.9-4.05m-42.08-17.58h42.08q12 0 20.54 2.28 8.53 2.29 13.98 6.51 5.45 4.23 7.99 10.23 2.53 5.99 2.53 13.52 0 4.31-1.27 8.23-1.26 3.93-3.92 7.36-2.67 3.42-6.76 6.21-4.1 2.79-9.76 4.73 25.18 5.66 25.18 27.21 0 7.77-2.96 14.36t-8.62 11.37q-5.66 4.77-13.94 7.48-8.28 2.7-18.93 2.7h-46.14zm153.79 99.8v-14.62q-9.04.42-15.21 1.56t-9.88 2.92q-3.72 1.77-5.33 4.14-1.6 2.36-1.6 5.15 0 5.49 3.25 7.86t8.49 2.37q6.42 0 11.11-2.33 4.69-2.32 9.17-7.05m-44.11-45.55-3.71-6.67q14.95-13.69 35.99-13.69 7.61 0 13.61 2.49t10.14 6.93 6.29 10.6q2.16 6.17 2.16 13.52v54.76h-9.47q-2.95 0-4.56-.89-1.61-.88-2.54-3.59l-1.85-6.25q-3.3 2.96-6.43 5.2-3.12 2.23-6.5 3.76-3.38 1.52-7.23 2.32-3.84.8-8.49.8-5.49 0-10.14-1.48t-8.03-4.43q-3.38-2.96-5.24-7.35-1.86-4.4-1.86-10.23 0-3.29 1.1-6.55 1.1-3.25 3.59-6.21 2.5-2.96 6.47-5.58t9.76-4.56 13.48-3.17q7.69-1.22 17.57-1.48v-5.07q0-8.7-3.72-12.88-3.71-4.19-10.73-4.19-5.07 0-8.4 1.19-3.34 1.18-5.88 2.66-2.53 1.48-4.6 2.66t-4.61 1.18q-2.2 0-3.72-1.14t-2.45-2.66m102.5-13.52 1.27 9.8q4.06-7.77 9.63-12.21 5.58-4.43 13.18-4.43 6 0 9.64 2.62l-1.35 15.63q-.43 1.52-1.23 2.15-.8.64-2.15.64-1.27 0-3.76-.42-2.5-.43-4.86-.43-3.47 0-6.17 1.02-2.71 1.01-4.86 2.91-2.16 1.9-3.8 4.61-1.65 2.7-3.09 6.17v53.4h-20.87v-86.7h12.25q3.21 0 4.48 1.14t1.69 4.1m98.44-5.24h20.88v86.7h-12.76q-4.14 0-5.24-3.8l-1.44-6.93q-5.32 5.41-11.74 8.74-6.43 3.34-15.13 3.34-7.1 0-12.55-2.41-5.45-2.4-9.17-6.8-3.71-4.39-5.62-10.43-1.9-6.05-1.9-13.31v-55.1h20.87v55.1q0 7.94 3.68 12.29t11.03 4.35q5.41 0 10.14-2.4 4.73-2.41 8.95-6.64zm68.45 86.7h-20.87V531l-7.52-1.18q-2.45-.51-3.93-1.74-1.48-1.22-1.48-3.5v-8.54h12.93v-6.42q0-7.43 2.24-13.35 2.24-5.91 6.42-10.06 4.18-4.14 10.18-6.33 6-2.2 13.52-2.2 6 0 11.16 1.61l-.43 10.47q-.08 1.19-.67 1.91-.59.71-1.57 1.09-.97.38-2.24.51-1.26.13-2.7.13-3.72 0-6.63.8-2.92.8-4.95 2.79-2.02 1.98-3.08 5.24-1.06 3.25-1.06 8.07v5.74h22.56v14.88h-21.88zm60.59 0h-20.88V531l-7.52-1.18q-2.45-.51-3.93-1.74-1.47-1.22-1.47-3.5v-8.54h12.92v-6.42q0-7.43 2.24-13.35 2.24-5.91 6.43-10.06 4.18-4.14 10.18-6.33 6-2.2 13.52-2.2 6 0 11.15 1.61l-.42 10.47q-.09 1.19-.68 1.91-.59.71-1.56 1.09t-2.24.51-2.7.13q-3.72 0-6.64.8-2.91.8-4.94 2.79-2.03 1.98-3.08 5.24-1.06 3.25-1.06 8.07v5.74h22.56v14.88h-21.88zm34.3-86.7h20.96v86.7h-20.96zm23.83-25.26q0 2.7-1.1 5.07-1.1 2.36-2.91 4.14-1.82 1.77-4.27 2.83-2.45 1.05-5.24 1.05-2.7 0-5.11-1.05-2.41-1.06-4.18-2.83-1.78-1.78-2.83-4.14-1.06-2.37-1.06-5.07 0-2.79 1.06-5.24 1.05-2.45 2.83-4.23 1.77-1.77 4.18-2.83 2.41-1.05 5.11-1.05 2.79 0 5.24 1.05 2.45 1.06 4.27 2.83 1.81 1.78 2.91 4.23t1.1 5.24"/></svg>